<svg width="672" height="171" viewBox="0 0 672 171" fill="none" xmlns="http://www.w3.org/2000/svg">
<path d="M82.7884 22H32.6136V117.332H188.156V22H137.981V47.0874H163.068V92.2447H57.701V47.0874H82.7884V22Z" fill="#041657"/>
<path d="M42.6486 122.35H27.5961V122.404H42.6486V122.35Z" fill="#041657"/>
<path d="M42.6486 124.913H25.0874V59.6854H0V150H42.6486V147.491H2.50874V147.437H42.6486V124.913Z" fill="#041657"/>
<path d="M65.2272 59.6854V84.7728H137.981V59.6854H65.2272Z" fill="#041657"/>
<path d="M137.981 122.35H97.8409V122.404H137.981V122.35Z" fill="#041657"/>
<path d="M137.981 124.913H97.8409V147.437H137.981V124.913Z" fill="#041657"/>
<path d="M97.8409 147.491H137.981V150H97.8409V147.491Z" fill="#041657"/>
<path d="M258.424 137H228.362L262.232 34.3878H300.311L334.181 137H304.119L281.672 62.6463H280.87L258.424 137ZM252.812 96.5163H309.329V117.359H252.812V96.5163ZM446.327 72.8674H418.068C417.868 70.5292 417.333 68.4082 416.465 66.5042C415.63 64.6003 414.461 62.9636 412.958 61.5941C411.488 60.1912 409.701 59.1223 407.597 58.3874C405.492 57.6192 403.104 57.2351 400.432 57.2351C395.755 57.2351 391.797 58.3707 388.557 60.6421C385.351 62.9135 382.912 66.1702 381.242 70.4123C379.605 74.6544 378.787 79.7483 378.787 85.6939C378.787 91.9736 379.622 97.2344 381.292 101.477C382.996 105.685 385.451 108.858 388.657 110.996C391.864 113.101 395.722 114.153 400.231 114.153C402.803 114.153 405.108 113.835 407.146 113.201C409.183 112.533 410.953 111.581 412.457 110.345C413.96 109.109 415.179 107.623 416.114 105.886C417.083 104.115 417.734 102.128 418.068 99.9233L446.327 100.124C445.993 104.466 444.773 108.892 442.669 113.401C440.565 117.877 437.575 122.019 433.7 125.827C429.859 129.601 425.099 132.641 419.421 134.946C413.743 137.251 407.146 138.403 399.63 138.403C390.211 138.403 381.76 136.382 374.278 132.34C366.829 128.299 360.933 122.353 356.591 114.503C352.282 106.654 350.128 97.0507 350.128 85.6939C350.128 74.2703 352.332 64.6504 356.741 56.8342C361.15 48.9847 367.096 43.0557 374.578 39.0474C382.06 35.0058 390.411 32.9849 399.63 32.9849C406.11 32.9849 412.072 33.8701 417.517 35.6404C422.962 37.4107 427.738 39.9994 431.847 43.4065C435.955 46.7801 439.262 50.9387 441.767 55.8823C444.272 60.8258 445.792 66.4875 446.327 72.8674ZM467.447 56.8342V34.3878H556.631V56.8342H525.767V137H498.311V56.8342H467.447ZM592.106 137H562.044L595.914 34.3878H633.993L667.863 137H637.801L615.354 62.6463H614.552L592.106 137ZM586.494 96.5163H643.011V117.359H586.494V96.5163Z" fill="#041657"/>
</svg>
